<svg width="512" height="512" viewBox="0 0 512 512" fill="none" xmlns="http://www.w3.org/2000/svg">
  <!-- House outline -->
  <path d="M256 80L96 200V416H416V200L256 80Z" stroke="#2563EB" stroke-width="16" stroke-linecap="round" stroke-linejoin="round" fill="#EFF6FF"/>
  
  <!-- Roof -->
  <path d="M96 200L40 240L256 80L472 240L416 200" stroke="#2563EB" stroke-width="16" stroke-linecap="round" stroke-linejoin="round"/>
  
  <!-- Door -->
  <rect x="224" y="320" width="64" height="96" rx="8" fill="#BFDBFE" stroke="#2563EB" stroke-width="8"/>
  <circle cx="248" cy="368" r="8" fill="#2563EB"/>
  
  <!-- Windows -->
  <rect x="144" y="240" width="64" height="64" rx="4" fill="#BFDBFE" stroke="#2563EB" stroke-width="8"/>
  <rect x="304" y="240" width="64" height="64" rx="4" fill="#BFDBFE" stroke="#2563EB" stroke-width="8"/>
  
  <!-- Window frames -->
  <path d="M144 272H208M176 240V304" stroke="#2563EB" stroke-width="4"/>
  <path d="M304 272H368M336 240V304" stroke="#2563EB" stroke-width="4"/>
  
  <!-- 404 text -->
  <text x="256" y="180" font-family="Arial, sans-serif" font-size="64" font-weight="bold" fill="#2563EB" text-anchor="middle">404</text>
  
  <!-- Search icon -->
  <circle cx="400" cy="120" r="32" fill="white" stroke="#2563EB" stroke-width="8"/>
  <line x1="424" y1="144" x2="448" y2="168" stroke="#2563EB" stroke-width="8" stroke-linecap="round"/>
  
  <!-- "Not Found" sign -->
  <rect x="120" y="136" width="120" height="32" rx="4" fill="#EF4444" stroke="#2563EB" stroke-width="4"/>
  <text x="180" y="158" font-family="Arial, sans-serif" font-size="16" font-weight="bold" fill="white" text-anchor="middle">NOT FOUND</text>
</svg> 